# xmcd
#
# Track frame offsets:
#	150
#	17610
#	39865
#	61568
#	83555
#	107258
#	129455
#	151563
#	174143
#	196735
#
# Disc length: 2908 seconds
#
# Revision: 3
# Processed by: cddbd v1.5.2PL0 Copyright (c) Steve Scherf et al.
# Submitted via: EasyCDDAExtractor 15.3.0.1
#
DISCID=560b5a0a
DTITLE=Rey Ruiz - En Cuerpo Y Alma
DYEAR=1995
DGENRE=Latin
TTITLE0=Mintiendo
TTITLE1=Ella
TTITLE2=Duele
TTITLE3=Vuelve De Nuevo Conmigo
TTITLE4=Jurame
TTITLE5=Estamos Solos
TTITLE6=El Rey Del Mundo
TTITLE7=El Hombre De Tu Vida
TTITLE8=Aguanta Corazon
TTITLE9=Una Forma De Olvidarte
EXTD=YEAR: 1995 ID3G:  86
EXTT0=
EXTT1=
EXTT2=
EXTT3=
EXTT4=
EXTT5=
EXTT6=
EXTT7=
EXTT8=
EXTT9=
PLAYORDER=
